<?xml version="1.0" encoding="UTF-8"?> <svg xmlns="http://www.w3.org/2000/svg" width="487" height="190" viewBox="0 0 487 190" fill="none"> <g clip-path="url(#clip0_15_112)"> <path d="M38.0591 55.3199C49.1691 55.3199 59.3691 60.6499 62.7091 68.0999V28.6899H83.8591V133.39H62.7091V123.35C58.7491 130.35 48.3991 135.37 38.0591 135.37C16.7591 135.37 0.319092 118.02 0.319092 95.3499C0.319092 72.6799 16.7591 55.3299 38.0591 55.3299M21.4691 95.3499C21.4691 106.92 30.7491 116.2 42.3191 116.2C53.8891 116.2 63.3191 106.92 63.3191 95.3499C63.3191 83.7799 53.8791 74.3499 42.3191 74.3499C30.7591 74.3499 21.4691 83.7899 21.4691 95.3499Z" fill="black"></path> <path d="M146.109 57.1501V76.7801C143.519 76.4801 140.939 76.3201 138.199 76.3201C127.089 76.3201 119.329 85.1501 119.329 97.6301V133.39H98.1791V57.3001H119.329V68.8701H119.479C121.909 60.9501 129.069 55.9301 138.199 55.9301C141.399 55.9301 144.289 56.3901 146.109 57.1501Z" fill="black"></path> <path d="M155.239 26.87H176.389V47.72H155.239V26.87ZM176.389 133.4H155.239V57.3H176.389V133.39V133.4Z" fill="black"></path> <path d="M184.009 57.3H205.459L219.769 109.2H220.069L234.379 57.3H255.839L232.249 133.39H207.589L184.009 57.3Z" fill="black"></path> <path d="M323.369 0H398.619C430.099 0 455.659 25.56 455.659 57.04V132.29C455.659 163.77 430.099 189.33 398.619 189.33H323.369C291.889 189.33 266.329 163.77 266.329 132.29V57.04C266.329 25.56 291.889 0 323.369 0Z" fill="#4AAF65"></path> <path d="M323.369 0H398.619C430.099 0 455.659 25.56 455.659 57.04V132.29C455.659 163.77 430.099 189.33 398.619 189.33H323.369C291.889 189.33 266.329 163.77 266.329 132.29V57.04C266.329 25.56 291.889 0 323.369 0Z" fill="#6CFF72"></path> <mask id="mask0_15_112" style="mask-type:luminance" maskUnits="userSpaceOnUse" x="266" y="0" width="190" height="190"> <path d="M323.369 0H398.619C430.099 0 455.659 25.56 455.659 57.04V132.29C455.659 163.77 430.099 189.33 398.619 189.33H323.369C291.889 189.33 266.329 163.77 266.329 132.29V57.04C266.329 25.56 291.889 0 323.369 0Z" fill="white"></path> </mask> <g mask="url(#mask0_15_112)"> <path d="M429.139 46.34C444.359 60.8 443.139 85.91 426.099 104.78C417.269 114.67 404.639 123.5 390.339 130.34C397.339 134.14 406.619 135.67 418.649 133.69C437.819 130.5 457.759 116.04 469.329 97.93L486.219 110.1C472.069 132.62 449.239 148.45 425.349 153.02C398.869 158.04 380.149 151.19 368.429 138.71C334.649 148.6 302.989 143.43 287.619 125.62C280.769 127.75 273.619 129.42 266.309 130.8L262.199 110.86C267.679 109.95 273.159 108.73 278.479 107.36C274.069 89.25 279.239 69.92 288.679 58.2C302.069 41.61 325.969 37.81 339.359 50.44C350.929 61.4 349.709 82.85 338.899 95.94C331.899 104.46 320.939 111.92 307.549 118.01C318.349 125.16 337.829 125.77 357.469 121.05C348.799 97.77 354.579 67.94 373.149 50.59C389.579 34.61 415.299 32.94 429.149 46.33M322.009 85.14C328.399 77.38 329.469 69.31 325.209 65.2C320.189 60.63 310.749 62.61 304.969 69.76C298.119 77.98 295.839 90.3 297.669 101.11C308.319 96.7 316.839 91.37 322.019 85.13M409.529 92.74C420.029 81.17 421.699 68.09 414.399 61.24C408.309 55.46 395.679 56.83 385.939 67.02C374.979 78.28 370.719 98.98 376.959 114.5C389.439 109.32 400.699 102.32 409.529 92.74Z" fill="#005031"></path> </g> </g> <defs> <clipPath id="clip0_15_112"> <rect width="485.89" height="189.32" fill="white" transform="translate(0.319092)"></rect> </clipPath> </defs> </svg> 